<svg width="365" height="242" viewBox="0 0 365 242" fill="none" xmlns="http://www.w3.org/2000/svg">
<g clip-path="url(#clip0_1198_1817)">
<rect width="365" height="242" rx="12" fill="#F64E60"/>
<path d="M67.4166 123.5C39.505 98.049 23.1215 98.1844 -7.5 123.5V301.5H371V123.5C360.676 113.46 355.249 114.18 346.028 123.5L320.566 149.5C303.081 167.628 292.712 167.374 273.07 149.5L236.346 112C217.526 96.1261 207.532 96.5327 190.809 112L158.981 144.5C132.845 171.549 117.426 173.657 87.9819 144.5L67.4166 123.5Z" fill="#F54759" stroke="#D13647" stroke-width="3"/>
<path d="M-7.5 129.5C23.1215 104.184 39.505 104.049 67.4166 129.5L87.9819 150.5C117.426 179.657 132.845 177.549 158.981 150.5L190.809 118C207.532 102.533 217.526 102.126 236.346 118L273.07 155.5C292.712 173.374 303.081 173.628 320.566 155.5L346.028 129.5C355.249 120.18 360.676 119.46 371 129.5" stroke="#952B37" stroke-opacity="0.1" stroke-width="4"/>
</g>
<defs>
<clipPath id="clip0_1198_1817">
<rect width="365" height="242" rx="12" fill="white"/>
</clipPath>
</defs>
</svg>
